<?xml version="1.0" encoding="UTF-8"?>
<svg version="1.1" xmlns="http://www.w3.org/2000/svg" width="192" height="192">
<path d="M0 0 C63.36 0 126.72 0 192 0 C192 63.36 192 126.72 192 192 C128.64 192 65.28 192 0 192 C0 128.64 0 65.28 0 0 Z " fill="#000000" transform="translate(0,0)"/>
<path d="M0 0 C7.10001148 6.55476852 13.1674015 15.79564895 13.828125 25.65234375 C14.13251972 37.4126749 13.25463114 48.86082978 5.34765625 58.2578125 C-3.45271955 67.4688725 -12.67534014 73.54401742 -25.70703125 74.28515625 C-39.33351756 74.51908735 -50.25830724 71.9734041 -60.66015625 62.59765625 C-69.45039277 53.19119697 -72.78071298 41.62614676 -72.625 28.99609375 C-71.81213641 18.02982499 -67.31700558 8.17576669 -59.296875 0.66015625 C-42.32209455 -13.39763294 -17.44796308 -13.77173099 0 0 Z " fill="#020202" transform="translate(168.41015625,63.90234375)"/>
<path d="M0 0 C6.868125 -0.061875 13.73625 -0.12375 20.8125 -0.1875 C24.02963745 -0.22846802 24.02963745 -0.22846802 27.31176758 -0.27026367 C43.40819433 -0.39352734 54.40349858 1.52841447 67 12 C75.52954581 20.96820817 78.5189 31.16188141 78.3125 43.30078125 C77.36018499 54.57381023 73.00507825 64.63871536 64.625 72.3125 C55.29538042 79.70270194 44.35258585 82.49827625 32.6171875 82.29296875 C31.78195557 82.28994751 30.94672363 82.28692627 30.08618164 82.28381348 C27.01565904 82.26831425 23.94531489 82.22643307 20.875 82.1875 C13.98625 82.125625 7.0975 82.06375 0 82 C0 54.94 0 27.88 0 0 Z " fill="#020202" transform="translate(10,55)"/>
<path d="M0 0 C6.868125 -0.061875 13.73625 -0.12375 20.8125 -0.1875 C24.02963745 -0.22846802 24.02963745 -0.22846802 27.31176758 -0.27026367 C43.40819433 -0.39352734 54.40349858 1.52841447 67 12 C75.52954581 20.96820817 78.5189 31.16188141 78.3125 43.30078125 C77.36018499 54.57381023 73.00507825 64.63871536 64.625 72.3125 C55.29538042 79.70270194 44.35258585 82.49827625 32.6171875 82.29296875 C31.78195557 82.28994751 30.94672363 82.28692627 30.08618164 82.28381348 C27.01565904 82.26831425 23.94531489 82.22643307 20.875 82.1875 C13.98625 82.125625 7.0975 82.06375 0 82 C0 54.94 0 27.88 0 0 Z M12 11 C12 31.13 12 51.26 12 72 C38.04738931 73.09435048 38.04738931 73.09435048 59 62 C65.76522968 54.69608692 66.63791941 46.50247298 66.375 36.98828125 C65.84499608 28.95682903 61.69512542 22.83511611 55.8984375 17.46875 C42.7959299 7.33183054 29.13801429 11 12 11 Z " fill="#F8F8F8" transform="translate(10,55)"/>
<path d="M0 0 C7.10001148 6.55476852 13.1674015 15.79564895 13.828125 25.65234375 C14.13251972 37.4126749 13.25463114 48.86082978 5.34765625 58.2578125 C-3.45271955 67.4688725 -12.67534014 73.54401742 -25.70703125 74.28515625 C-39.33351756 74.51908735 -50.25830724 71.9734041 -60.66015625 62.59765625 C-69.45039277 53.19119697 -72.78071298 41.62614676 -72.625 28.99609375 C-71.81213641 18.02982499 -67.31700558 8.17576669 -59.296875 0.66015625 C-42.32209455 -13.39763294 -17.44796308 -13.77173099 0 0 Z M-52.41015625 10.09765625 C-59.76807905 19.36863898 -61.35810321 27.43430884 -60.41015625 39.09765625 C-58.79828867 46.31727871 -55.04566446 52.31279078 -49.41015625 57.09765625 C-39.9604945 62.87085385 -30.58672096 64.87075108 -19.58203125 62.484375 C-11.69545939 59.66951366 -4.7993322 54.34621131 -0.91015625 46.84765625 C2.68177066 38.79907928 3.09674814 28.55490346 0.75390625 20.0703125 C-3.20349584 11.45167506 -9.79186637 6.34049992 -18.4296875 2.82421875 C-30.23328618 -1.50609556 -43.45735293 1.202489 -52.41015625 10.09765625 Z " fill="#F7F7F7" transform="translate(168.41015625,63.90234375)"/>
</svg>
